<svg width="119" height="124" viewBox="0 0 119 124" fill="none" xmlns="http://www.w3.org/2000/svg">
<circle cx="4.22727" cy="4.22727" r="4.22727" fill="#F75710" fill-opacity="0.2"/>
<circle cx="4.22727" cy="62.0002" r="4.22727" fill="#F75710" fill-opacity="0.2"/>
<circle cx="4.22727" cy="33.1135" r="4.22727" fill="#F75710" fill-opacity="0.2"/>
<circle cx="4.22727" cy="90.8865" r="4.22727" fill="#F75710" fill-opacity="0.2"/>
<circle cx="4.22727" cy="119.773" r="4.22727" fill="#F75710" fill-opacity="0.2"/>
<circle cx="31.7046" cy="4.22727" r="4.22727" fill="#F75710" fill-opacity="0.2"/>
<circle cx="31.7046" cy="62.0002" r="4.22727" fill="#F75710" fill-opacity="0.2"/>
<circle cx="31.7046" cy="33.1135" r="4.22727" fill="#F75710" fill-opacity="0.2"/>
<circle cx="31.7046" cy="90.8865" r="4.22727" fill="#F75710" fill-opacity="0.2"/>
<circle cx="31.7046" cy="119.773" r="4.22727" fill="#F75710" fill-opacity="0.2"/>
<circle cx="59.1819" cy="4.22727" r="4.22727" fill="#F75710" fill-opacity="0.2"/>
<circle cx="59.1819" cy="62.0002" r="4.22727" fill="#F75710" fill-opacity="0.2"/>
<circle cx="59.1819" cy="33.1135" r="4.22727" fill="#F75710" fill-opacity="0.2"/>
<circle cx="59.1819" cy="90.8865" r="4.22727" fill="#F75710" fill-opacity="0.2"/>
<circle cx="59.1819" cy="119.773" r="4.22727" fill="#F75710" fill-opacity="0.2"/>
<circle cx="86.6592" cy="4.22727" r="4.22727" fill="#F75710" fill-opacity="0.2"/>
<circle cx="86.6592" cy="62.0002" r="4.22727" fill="#F75710" fill-opacity="0.2"/>
<circle cx="86.6592" cy="33.1135" r="4.22727" fill="#F75710" fill-opacity="0.2"/>
<circle cx="86.6592" cy="90.8865" r="4.22727" fill="#F75710" fill-opacity="0.2"/>
<circle cx="86.6592" cy="119.773" r="4.22727" fill="#F75710" fill-opacity="0.2"/>
<circle cx="114.136" cy="4.22727" r="4.22727" fill="#F75710" fill-opacity="0.2"/>
<circle cx="114.136" cy="62.0002" r="4.22727" fill="#F75710" fill-opacity="0.2"/>
<circle cx="114.136" cy="33.1135" r="4.22727" fill="#F75710" fill-opacity="0.2"/>
<circle cx="114.136" cy="90.8865" r="4.22727" fill="#F75710" fill-opacity="0.2"/>
<circle cx="114.136" cy="119.773" r="4.22727" fill="#F75710" fill-opacity="0.2"/>
</svg>
